<svg xmlns="http://www.w3.org/2000/svg" width="104" height="110" viewBox="0 0 104 110">
    <g fill="#B7BDCC" fill-rule="nonzero">
        <path d="M3 87.685c.09-.73.656-1.133 1.175-1.566a6.084 6.084 0 0 1 1.91-1.007c.88-.34 1.787-.614 2.711-.821a17.994 17.994 0 0 1 2.099-.262c.77-.05 1.542-.025 2.308 0a14.96 14.96 0 0 1 1.574.186c.647.1 1.274.3 1.857.59 1.024.557 1.553 1.69 1.306 2.795a5.653 5.653 0 0 1-2.623 3.38c-.723.49-1.496.906-2.308 1.243-1.285.504-2.544 1.068-3.866 1.511-.388.121-.787.202-1.17.338-.11.04-.136.09-.131.206a9.674 9.674 0 0 1-.063 1.652c-.026.19-.042.382-.047.574 0 .937-.09 1.874-.095 2.805-.03.62.031 1.24.184 1.844.019.077.059.148.115.206.35.32.527.778.48 1.24a1.504 1.504 0 0 1-.721 1.127 1.628 1.628 0 0 1-1.368.207 1.549 1.549 0 0 1-1.008-.912 2.76 2.76 0 0 1-.242-1.007 33.999 33.999 0 0 1-.13-4.135c0-.76.088-1.51.115-2.276v-.826c0-.106-.042-.126-.142-.106-.34.081-.701.035-1.007-.131a1.273 1.273 0 0 1-.68-1.077 1.266 1.266 0 0 1 .612-1.114c.228-.153.494-.245.77-.267.184 0 .363-.07.525-.1.09 0 .12-.061.137-.147.136-.911.246-1.828.461-2.73.026-.12.037-.246.053-.367.015-.12-.032-.126-.12-.075-.09.05-.295.16-.447.226a1.933 1.933 0 0 1-1.049.202c-.587-.088-1.047-.53-1.138-1.093l-.032-.136L3 87.685zm10.05-1.007a4.811 4.811 0 0 0-.655.035 7.384 7.384 0 0 0-1.626.187c-.593.098-1.18.23-1.757.393a.349.349 0 0 0-.247.251 13.42 13.42 0 0 0-.336 1.642c-.084.615-.267 1.22-.33 1.844 0 .16 0 .17.147.115.147-.055.325-.12.488-.17a19.278 19.278 0 0 0 3.23-1.27c.384-.211.767-.413 1.134-.65a11.738 11.738 0 0 0 1.505-1.395.342.342 0 0 0 .037-.468.951.951 0 0 0-.446-.327 3.382 3.382 0 0 0-1.143-.172v-.015zM57.292 82.024c.161.04.32.088.477.146.648.212 1.121.837 1.202 1.589.026.339.034.68.026 1.02a4.393 4.393 0 0 1-.495 2.07 2.76 2.76 0 0 1-.72.908c-.481.395-1.155.299-1.531-.22-.377-.519-.323-1.277.121-1.724a.923.923 0 0 0 .23-.743 1.341 1.341 0 0 0-.239-.636 1.709 1.709 0 0 1 0-1.92c.163-.256.409-.43.686-.485l.13-.029.113.024zM89.005 100.258c.006-.758.094-1.511.265-2.245.182-1.07.5-2.106.942-3.08a8.089 8.089 0 0 1 1.487-2.557 6.133 6.133 0 0 1 1.192-1.006c1.099-.637 2.445-.438 3.352.494.067.069.119.137.233.12a1.25 1.25 0 0 1 1.206.452c.304.368.414.882.291 1.36-.16.762-.28 1.529-.41 2.273a14.83 14.83 0 0 0-.186 1.859c0 .33-.046.653-.057.983-.007.499.029.997.11 1.489.029.358.104.71.222 1.045.082.197.177.387.285.568a.38.38 0 0 0 .217.165c.428.178.74.588.824 1.082.084.493-.073.999-.414 1.333a1.39 1.39 0 0 1-1.674.222 2.478 2.478 0 0 1-.953-.875 6.1 6.1 0 0 1-.922-1.944c0-.045 0-.108-.057-.119-.057-.011-.067.051-.093.085-.313.43-.677.813-1.083 1.137a4.635 4.635 0 0 1-1.84.966c-.992.187-1.984-.33-2.48-1.29a5.033 5.033 0 0 1-.462-2.16c.005-.107.005-.232.005-.357zm2.653-.063c-.02.26-.02.52 0 .779 0 .08.026.119.109.073a2.99 2.99 0 0 0 .673-.505 8.841 8.841 0 0 0 1.606-2.592c.283-.774.515-1.57.694-2.38a.33.33 0 0 0 0-.12 6.127 6.127 0 0 0-.331-1.375.223.223 0 0 0-.152-.165.2.2 0 0 0-.206.063 2.842 2.842 0 0 0-.89.971 12.158 12.158 0 0 0-1.311 3.552 7.398 7.398 0 0 0-.187 1.699h-.005zM28.865 97.75c-.005.642.027 1.284.095 1.922 0 .517.053 1.033.037 1.514-.016.48-.063 1.033-.105 1.519-.042.485-.085.92-.148 1.384a8.032 8.032 0 0 1-.78 2.728 8.5 8.5 0 0 1-1.937 2.412 2.693 2.693 0 0 1-1.839.723 8.72 8.72 0 0 1-1.053.047 3.784 3.784 0 0 1-2.17-.785 2.564 2.564 0 0 1-.958-1.963c-.036-.461.07-.922.305-1.323a1.58 1.58 0 0 1 1.082-.74c.453-.081.92.037 1.278.322.396.306.597.796.526 1.286 0 .16.042.217.174.212.132-.005.427-.026.637-.042a.237.237 0 0 0 .148-.098 5.126 5.126 0 0 0 1.232-1.715c.16-.449.269-.913.327-1.384.084-.59.147-1.188.174-1.782.064-.648.078-1.299.042-1.948-.08-.78-.09-1.576-.1-2.366a15.919 15.919 0 0 0-.106-1.803c-.042-.315-.031-.635-.058-.956-.031-.46-.084-.924-.084-1.39-.018-.804.618-1.479 1.438-1.523a1.528 1.528 0 0 1 1.58 1.353c.084.656.063 1.323.148 1.974.068.516 0 1.069.1 1.596.03.274.034.551.015.826zM49.475 97.333v-1.26c.016-.43.056-.858.12-1.284 0-.315.048-.624.081-.94 0-.151-.033-.182-.2-.141-.25.07-.5.157-.754.208-.51.129-1.041.17-1.567.122-.656-.09-1.146-.613-1.155-1.234-.015-.58.387-1.099.982-1.264.276-.094.568-.139.862-.132.118.002.236-.017.347-.056.477-.167.986-.228 1.474-.36.163-.04.315-.112.477-.163a.237.237 0 0 0 .174-.203c.114-.477.13-.97.276-1.442a6.16 6.16 0 0 1 .64-1.619c.045-.085.081-.173.108-.264.162-.419.363-.823.602-1.208.044-.08.084-.16.12-.244.247-.639.983-.988 1.68-.797.693.2 1.115.856.981 1.523-.032.178-.096.35-.19.508a9.813 9.813 0 0 0-.731 1.487 5.713 5.713 0 0 0-.412.924c0 .122-.066.244-.104.366-.037.122 0 .137.098.101.434-.137.884-.203 1.323-.304.356-.11.732-.15 1.106-.117.68.108 1.181.658 1.187 1.305-.002.634-.496 1.174-1.166 1.274-.774.128-1.54.298-2.293.507-.238.066-.488.051-.72.138a.22.22 0 0 0-.169.157c-.112.41-.185.83-.217 1.254-.06.507-.113 1.05-.173 1.579-.008.104-.008.21 0 .314V98.1c.001.755.08 1.508.233 2.249.155.592-.14 1.208-.716 1.493a1.46 1.46 0 0 1-1.112.088 1.345 1.345 0 0 1-.818-.713 3.489 3.489 0 0 1-.243-1.015c-.077-.471-.124-.946-.141-1.422.005-.492.01-.97.01-1.446zM67.995 95.682c.01.82-.146 1.634-.459 2.4a11.96 11.96 0 0 1-.85 1.87 8.76 8.76 0 0 1-1.364 1.79c-.308.327-.684.591-1.104.777a5.29 5.29 0 0 1-1.369.437 4.461 4.461 0 0 1-2.633-.432 3.31 3.31 0 0 1-1.745-1.963 8.26 8.26 0 0 1-.452-1.885 5.266 5.266 0 0 1 0-.886c.06-.59.175-1.173.342-1.744a5.855 5.855 0 0 1 .96-1.916c.26-.382.585-.722.961-1.005a2.33 2.33 0 0 1 1.574-.453.322.322 0 0 0 .22-.063c.206-.127.422-.238.646-.333.378-.18.797-.273 1.22-.27a7.42 7.42 0 0 1 1.519.098 2.995 2.995 0 0 1 1.54.88 3.655 3.655 0 0 1 .994 2.698zm-2.827.083a2.119 2.119 0 0 0-.083-.672c-.039-.161-.11-.344-.281-.38a1.491 1.491 0 0 0-1.105.047c-.314.172-.623.354-.922.552-.5.375-.976.778-1.424 1.208-.214.186-.362.43-.425.698-.095.34-.14.69-.132 1.041a4.62 4.62 0 0 0 .37 1.62c.033.092.1.171.187.223.329.195.723.265 1.104.198a2.183 2.183 0 0 0 1.42-1.104 8.336 8.336 0 0 0 .833-1.562 5.458 5.458 0 0 0 .458-1.87z"/>
        <path d="M25.992 95.689a6.256 6.256 0 0 1-.458 2.41 12.391 12.391 0 0 1-.827 1.819 8.52 8.52 0 0 1-1.373 1.818 3.47 3.47 0 0 1-1.102.78 5.454 5.454 0 0 1-1.39.441 4.49 4.49 0 0 1-2.585-.41c-.89-.419-1.55-1.174-1.814-2.078a8.894 8.894 0 0 1-.424-1.808 4.481 4.481 0 0 1 0-.816c.058-.512.15-1.02.275-1.522a6.134 6.134 0 0 1 1.02-2.167c.26-.38.581-.718.954-1.003a2.336 2.336 0 0 1 1.604-.483.323.323 0 0 0 .21-.052c.204-.127.417-.24.64-.337a2.895 2.895 0 0 1 1.234-.276 7.415 7.415 0 0 1 1.516.099 2.981 2.981 0 0 1 1.527.868 3.594 3.594 0 0 1 .993 2.717zm-2.823.083a2.195 2.195 0 0 0-.077-.655c-.039-.16-.11-.337-.281-.384a1.486 1.486 0 0 0-1.048.031c-.32.159-.629.336-.926.53-.518.377-1.006.788-1.46 1.231a1.249 1.249 0 0 0-.414.67 3.93 3.93 0 0 0-.138 1.066c.026.534.145 1.06.353 1.558.035.109.109.203.21.265.33.19.722.256 1.102.187a2.178 2.178 0 0 0 1.389-1.09c.34-.491.624-1.014.849-1.56.254-.589.403-1.214.441-1.849zM82.393 93.666c.391-.388.856-.704 1.372-.93a2.173 2.173 0 0 1 2.3.395c.29.335.51.718.653 1.128.242.69.427 1.395.553 2.111.15.832.277 1.67.437 2.496.062.444.194.877.393 1.284a.403.403 0 0 0 .15.167c.34.172.592.467.696.817.105.35.053.726-.144 1.04-.428.664-1.338.894-2.063.52a2.75 2.75 0 0 1-1.15-1.337 8.296 8.296 0 0 1-.725-2.377c-.166-.904-.326-1.814-.492-2.72a.245.245 0 0 0 0-.062c0-.062 0-.135-.1-.15-.099-.016-.116.057-.154.109a4.99 4.99 0 0 0-.47.785 21.016 21.016 0 0 0-1.41 3.25 8.862 8.862 0 0 0-.41 1.56c-.049.734-.721 1.291-1.502 1.245-.78-.046-1.373-.678-1.324-1.411-.008-.71.035-1.418.127-2.122.039-.302.039-.608.06-.915.023-.307.056-.76.095-1.139.066-.655.05-1.32.182-1.97.046-.265.07-.533.072-.801 0-.442.083-.88.094-1.321 0-.657.514-1.215 1.206-1.305.4-.052.805.059 1.112.305.308.246.489.604.497.984-.05.104-.055.229-.055.364zM43.035 92.008a2.15 2.15 0 0 1 2.02 1.03c.373.587.291 1.363-.195 1.854a1.38 1.38 0 0 1-1.78.184.316.316 0 0 0-.319-.046c-.51.165-1.01.357-1.501.575a3.43 3.43 0 0 0-1.172.927c-.1.115-.073.172.056.213l.999.305c.65.183 1.277.45 1.864.794.278.132.563.247.854.345a3.477 3.477 0 0 1 1.97 1.894c.246.715.223 1.5-.067 2.198a3.7 3.7 0 0 1-1.468 1.905c-.519.34-.999.725-1.54 1.036a5.946 5.946 0 0 1-2.093.748 4.071 4.071 0 0 1-.916 0 1.835 1.835 0 0 0-.396 0 1.543 1.543 0 0 1-1.674-.823c-.301-.574-.22-1.28.2-1.767a1.527 1.527 0 0 1 1.77-.477c.238.089.495.107.742.051a5.416 5.416 0 0 0 1.943-1.018c.134-.087.25-.196.38-.276a.809.809 0 0 0 .328-.444.164.164 0 0 0-.067-.213 1.852 1.852 0 0 0-.474-.212 5.976 5.976 0 0 1-.932-.426 5.981 5.981 0 0 0-1.596-.559 5.593 5.593 0 0 1-2.278-1.15 1.952 1.952 0 0 1-.692-1.508 3.744 3.744 0 0 1 1.3-2.947 6.525 6.525 0 0 1 1.67-1.22c.466-.217.943-.409 1.428-.575l.559-.202c.342-.139.709-.206 1.077-.196z"/>
        <path d="M73.166 98.761c.128-.267.246-.501.358-.741a54.629 54.629 0 0 1 1.927-3.7 10.57 10.57 0 0 1 1.789-2.519 6 6 0 0 1 .533-.501 1.335 1.335 0 0 1 1.442-.158c.47.236.774.728.785 1.272a1.55 1.55 0 0 1-.77 1.388 1.363 1.363 0 0 0-.384.345A17.301 17.301 0 0 0 77.33 96.6a60.45 60.45 0 0 1-.811 1.544 21.396 21.396 0 0 0-2.05 5.36 2.93 2.93 0 0 1-.208.669c-.229.517-.73.842-1.276.828a1.37 1.37 0 0 1-1.233-.895 4.32 4.32 0 0 1-.267-.909c-.139-.78-.411-1.526-.609-2.295a42.93 42.93 0 0 0-.758-2.575 57.974 57.974 0 0 0-1.004-2.747c-.302-.723.015-1.565.708-1.88.693-.316 1.5.015 1.802.738.181.435.341.875.496 1.315.347.964.678 1.928.977 2.903.017.04.04.075.07.106zM33.003 100.256c0-.99.056-1.981.069-2.966 0-.512 0-1.024.043-1.535.042-.512.077-.882.12-1.323.043-.44.103-.773.167-1.159.117-.787.686-1.335 1.316-1.267.63.067 1.118.727 1.129 1.528.01.214-.006.43-.047.637-.1.479-.1.98-.168 1.464-.069.484 0 1.04-.06 1.551-.056.664 0 1.328-.052 1.987a25.408 25.408 0 0 0-.043 1.513c-.016.265.061.526.211.712.345.482.41 1.188.163 1.758-.242.579-.74.91-1.254.833-.422-.063-.797-.37-1.014-.833-.078-.157-.172-.304-.25-.462a3.824 3.824 0 0 1-.326-1.579c-.013-.288-.004-.576-.004-.86zM42.135 89.998a1.315 1.315 0 0 1-.888-.383 13.57 13.57 0 0 1-1.655-1.753 2.355 2.355 0 0 1-.584-1.185c-.055-.505.168-1 .575-1.277.407-.278.93-.291 1.349-.035.211.127.386.31.508.531.194.307.419.592.67.85.07.075.121.086.192 0 .362-.359.743-.696 1.142-1.009.097-.09.193-.18.285-.281a1.259 1.259 0 0 1 1.568-.303c.548.305.82.967.655 1.594a1.599 1.599 0 0 1-.594.924 11.95 11.95 0 0 0-1.32 1.137c-.324.338-.672.65-1.04.935a1.346 1.346 0 0 1-.863.255zM29 88.017A1 1 0 1 1 28.003 87c.555.01.999.463.997 1.017zM34 89a1 1 0 1 1 1-1 1.01 1.01 0 0 1-1 1zM101.925 29.18v13.796H2.107c-.569-2.006-.258-4.017-.2-6.213 5.273-1.486 10.736-1.847 16.073-2.6 5.336-.754 10.846-1.555 16.52-1.799 9.625 6.367 21.557 5.64 30.85-2.217 11.963-1.014 24.08-.6 36.575-.96"/>
        <path d="M39.383 25.62c0-.058-.026-.164-.052-.169-.18-.032-.222.048-.106.207 0 0 .1 0 .158-.037m26.014-.563l-.143.128.085-.18.137-.139-.08.191m-4.53-22.474c4.868 2.425 7.328 6.5 8.166 11.418 1.364 8-4.373 16.198-12.644 17.98C46.2 34.19 37.524 28.878 35.432 19.875 33.604 12 37.608 4.457 45.183 1.517l.559.531.153.143-.211-.069-.527-.53C50.62-.722 55.898-.531 60.961 2.652l-.142.144c.026-.064.058-.127.084-.196M88.212 60.426c1.26.35 2.596.298 3.825-.149a1.83 1.83 0 0 0 1.259-1.84c0-.78-.527-1.253-1.265-1.55a6.28 6.28 0 0 0-3.83-.18 8.853 8.853 0 0 0 0 3.713m0 9.98c1.534.228 2.782.303 4-.244a1.938 1.938 0 0 0 1.253-2.08 1.729 1.729 0 0 0-1.707-1.703 9.573 9.573 0 0 0-3.54 0 10.2 10.2 0 0 0 0 4.017m-9.514 5.22V51.8c.263-.154.41-.319.569-.324 6.074-.111 12.164-.53 18.211.255 4.647.6 6.901 4.361 5.268 8.489-.574 1.459-1.76 2.414-3.16 3.114.22.658.784.796 1.211 1.061 2.434 1.592 3.071 3.789 2.634 6.415-.421 2.536-2.06 3.937-4.583 4.674-1.246.33-2.531.484-3.82.456-4.883.053-9.771.059-14.655.075a2.781 2.781 0 0 1-1.712-.398M66.182 63.98c0-1.474.057-2.96-.622-4.355-.738-1.507-1.739-2.16-3.16-2.123-1.581.059-2.319 1.061-2.761 2.24a12.194 12.194 0 0 0 0 8.207 2.968 2.968 0 0 0 3.081 2.197c1.45-.038 2.392-.775 3.014-2.314.527-1.257.405-2.568.463-3.867M62.815 51.23a18.21 18.21 0 0 1 4.457.281c5.937 1.46 9.382 5.39 9.588 11.1.09 1.305.041 2.616-.148 3.91-.995 5.528-4.214 8.643-10.21 9.672a21.298 21.298 0 0 1-9.45-.334c-3.92-1.098-6.67-3.396-7.902-7.136a15.491 15.491 0 0 1-.274-9.02c1.312-4.85 5.353-7.99 10.836-8.489 1.017-.085 2.055 0 3.082 0M45.953 52.096v6.5c-2.919-.59-5.748-1.248-8.682-1.025-1.333.101-1.549.09-2.34.786a.777.777 0 0 0 .064 1.241 5.54 5.54 0 0 0 1.939.61c1.749.403 3.535.685 5.268 1.173 3.334.95 5.33 3.061 5.547 6.276.205 3.099-1.09 5.608-4.14 7.227a13.065 13.065 0 0 1-4.842 1.474c-4.446.51-8.944.271-13.312-.705a1.269 1.269 0 0 1-1.054-.663v-6.234c3.309.992 6.506 1.713 9.851 1.475a4.776 4.776 0 0 0 2.308-.531.985.985 0 0 0 .148-1.592c-.686-.594-1.74-.647-2.635-.843a43.697 43.697 0 0 1-4.694-1.093c-4.625-1.592-6.574-5.465-4.93-9.72.753-1.942 2.291-3.184 4.272-3.995a15.446 15.446 0 0 1 5.268-1.141c3.904-.138 7.812-.228 11.98.77M21.92 75.457c-5.916 1.591-11.59 1.687-16.857-1.746a10.004 10.004 0 0 1-4.325-5.746c-1.828-6.537-.659-13.1 8.139-16.601-1.112-1.019-2.824-1.061-3.767-2.361.68-1.12 1.786-1.746 2.692-2.711 1.443 1.161 2.77 2.122 4.414 2.583 1.731.399 3.525.43 5.268.09 1.101-.164 2.108-.811 3.361-1.92.402.177.826.298 1.26.36-.89 1.592-2.287 2.123-3.572 3.009 1.188.177 2.338.553 3.403 1.114a31.189 31.189 0 0 1-.074 6.569c-2.381-.356-4.578-1.141-6.954-.531-3.318.897-5.004 3.136-4.683 6.632.269 2.95 2.508 5.02 5.663 5.274 1.981.159 3.877-.292 5.927-.79.474 2.254.263 4.43.105 6.78"/>
    </g>
</svg>
