<svg xmlns="http://www.w3.org/2000/svg" width="65" height="61" viewBox="0 0 65 61">
    <defs>
        <linearGradient id="a" x1="-.277%" x2="101.061%" y1="50%" y2="50%">
            <stop offset="0%" stop-color="#FEDA02"/>
            <stop offset="50%" stop-color="#FED802"/>
            <stop offset="100%" stop-color="#FFB100"/>
        </linearGradient>
        <linearGradient id="b" x1="-88%" x2="32091%" y1="7371%" y2="7371%">
            <stop offset="0%" stop-color="#FEDA02"/>
            <stop offset="50%" stop-color="#FED802"/>
            <stop offset="100%" stop-color="#FFB100"/>
        </linearGradient>
        <linearGradient id="c" x1="-88%" x2="32091%" y1="9966%" y2="9966%">
            <stop offset="0%" stop-color="#FEDA02"/>
            <stop offset="50%" stop-color="#FED802"/>
            <stop offset="100%" stop-color="#FFB100"/>
        </linearGradient>
        <linearGradient id="d" x1="-.759%" x2="100.351%" y1="50.003%" y2="50.003%">
            <stop offset="0%" stop-color="#FFF"/>
            <stop offset="1%" stop-color="#000010"/>
            <stop offset="5%" stop-color="#000041"/>
            <stop offset="9%" stop-color="#00006E"/>
            <stop offset="14%" stop-color="#000095"/>
            <stop offset="19%" stop-color="#0000B6"/>
            <stop offset="24%" stop-color="#0000D1"/>
            <stop offset="29%" stop-color="#0000E5"/>
            <stop offset="35%" stop-color="#0000F4"/>
            <stop offset="43%" stop-color="#0000FC"/>
            <stop offset="55%" stop-color="#00F"/>
            <stop offset="84%" stop-color="#0000CA"/>
            <stop offset="96%" stop-color="#004CFF"/>
            <stop offset="96%" stop-color="#004AF7"/>
            <stop offset="97%" stop-color="#0043E1"/>
            <stop offset="97%" stop-color="#0038BC"/>
            <stop offset="98%" stop-color="#00298A"/>
            <stop offset="99%" stop-color="#00164A"/>
            <stop offset="100%" stop-color="#FFF"/>
        </linearGradient>
        <linearGradient id="e" x1="0%" y1="50.003%" y2="50.003%">
            <stop offset="0%" stop-color="#00B3CA"/>
            <stop offset="4%" stop-color="#00D3A1"/>
            <stop offset="7%" stop-color="#00E786"/>
            <stop offset="23%" stop-color="#00D194"/>
            <stop offset="32%" stop-color="#00D591"/>
            <stop offset="100%" stop-color="#00EF7B"/>
        </linearGradient>
    </defs>
    <g fill="none" fill-rule="nonzero">
        <path fill="#FFF" d="M5.257 42.748H53.29v15.85H5.257z"/>
        <path fill="#FFF" d="M3.346 44.91l49.705-8.572V19.693L3.346 28.265z"/>
        <path fill="#FFF" d="M51.379 24.496L12.188 18.31V3.362l39.19 6.186z"/>
        <path fill="url(#a)" d="M23.114 22.815l14.308-2.533-3.198-11.925 2.504.445 2.434 9.68 1.75-5.972-.84-3.1 2.241.398 2.338 9.207.266-.047 2.304-8.292 2.504.444-2.207 7.385 4.497-.8c2.773-.492 5.099-2.297 5.099-5.129 0-2.832-2.326-4.637-5.1-5.13L10.197 0 0 8.452 10.196 20.52l12.918 2.295zm4.479-15.879c3.536.626 6.372 3.93 6.372 7.542 0 3.612-2.836 5.909-6.372 5.28-3.536-.627-6.356-3.944-6.356-7.538 0-3.594 2.82-5.912 6.356-5.284zM14.029 4.774l2.416.428V15.2l4.552.81v2.324l-6.968-1.237V4.774z"/>
        <path fill="url(#b)" d="M27.601 17.463c2.215.403 3.943-.994 3.943-3.407-.009-2.39-1.666-4.432-3.943-4.861-2.215-.404-3.943.994-3.943 3.425.015 2.383 1.672 4.418 3.943 4.843z"/>
        <path fill="url(#c)" d="M41.103 19.453l1.912-.3-.86-2.822z"/>
        <path fill="#00F" d="M52.013 17.614L7.636 25.48C3.613 26.192.24 28.807.24 32.913c.001 4.106 3.313 7.433 7.397 7.433h2.32c-1.44-.904-2.32-2.555-2.32-4.613 0-3.618 2.662-6.873 6.376-7.539 2.908-.515 5.377.966 5.956 3.592l-2.54.45c-.438-1.312-1.8-1.969-3.42-1.683a4.721 4.721 0 0 0-3.976 4.755c0 2.35 1.576 3.753 3.976 3.326 1.62-.286 2.978-1.407 3.42-2.876l2.54-.45c-.44 2.146-1.98 4.033-3.973 5.038h23.461l12.557-2.224c2.774-.492 5.101-2.295 5.101-5.128V12.488c0 2.83-2.327 4.627-5.101 5.126zM27.14 38.684c-3.538.628-6.358-1.689-6.358-5.28 0-3.593 2.82-6.91 6.358-7.537 3.537-.628 6.377 1.669 6.377 5.279s-2.838 6.91-6.377 7.538zm11.775-2.087c-2.416.429-4.484-.472-4.484-3.255l2.417-.429c0 1.127.701 1.548 2.067 1.306 1.226-.217 1.8-.848 1.8-1.552 0-.88-.981-1.094-2.16-1.291-1.75-.324-3.904-.646-3.904-3.256 0-2.351 1.943-3.935 3.974-4.295 2.138-.378 4.14.517 4.14 3.255l-2.401.425c0-1.074-.63-1.508-1.735-1.313-.999.181-1.576.79-1.576 1.512 0 .904.84 1.154 1.98 1.375 1.768.32 4.08.562 4.08 3.168.006 2.355-1.922 3.947-4.198 4.35zM52.013 24.03l-2.96.525v10.001l-2.412.427v-10l-2.944.523V23.18l5.36-.95 2.96-.524-.004 2.322z"/>
        <path fill="url(#d)" d="M52.013 17.614L7.636 25.48C3.613 26.192.24 28.807.24 32.913c.001 4.106 3.313 7.433 7.397 7.433h2.32c-1.44-.904-2.32-2.555-2.32-4.613 0-3.618 2.662-6.873 6.376-7.539 2.908-.515 5.377.966 5.956 3.592l-2.54.45c-.438-1.312-1.8-1.969-3.42-1.683a4.721 4.721 0 0 0-3.976 4.755c0 2.35 1.576 3.753 3.976 3.326 1.62-.286 2.978-1.407 3.42-2.876l2.54-.45c-.44 2.146-1.98 4.033-3.973 5.038h23.461l12.557-2.224c2.774-.492 5.101-2.295 5.101-5.128V12.488c0 2.83-2.327 4.627-5.101 5.126zM27.14 38.684c-3.538.628-6.358-1.689-6.358-5.28 0-3.593 2.82-6.91 6.358-7.537 3.537-.628 6.377 1.669 6.377 5.279s-2.838 6.91-6.377 7.538zm11.775-2.087c-2.416.429-4.484-.472-4.484-3.255l2.417-.429c0 1.127.701 1.548 2.067 1.306 1.226-.217 1.8-.848 1.8-1.552 0-.88-.981-1.094-2.16-1.291-1.75-.324-3.904-.646-3.904-3.256 0-2.351 1.943-3.935 3.974-4.295 2.138-.378 4.14.517 4.14 3.255l-2.401.425c0-1.074-.63-1.508-1.735-1.313-.999.181-1.576.79-1.576 1.512 0 .904.84 1.154 1.98 1.375 1.768.32 4.08.562 4.08 3.168.006 2.355-1.922 3.947-4.198 4.35zM52.013 24.03l-2.96.525v10.001l-2.412.427v-10l-2.944.523V23.18l5.36-.95 2.96-.524-.004 2.322z" opacity=".5"/>
        <path fill="#00F" d="M27.133 28.178c-2.277.427-3.935 2.472-3.943 4.861 0 2.406 1.728 3.81 3.943 3.407 2.272-.424 3.93-2.459 3.943-4.843 0-2.431-1.726-3.828-3.943-3.425z"/>
        <path fill="#00EF7B" d="M22.36 52.444h3.258l-1.63-5.12-1.628 5.12zm-10.092-5.547H10.06v3.633h2.21c.91 0 1.663-.807 1.663-1.824 0-1.018-.748-1.81-1.664-1.81zm42.529-6.344H7.634c-4.083 0-7.394-3.318-7.395-7.411v20.447C.24 57.682 3.551 61 7.634 61h47.168L65 50.776 54.797 40.553zM15.007 56.92l-3.469-4.264h-1.479v4.264H7.634V44.632h4.634a4.064 4.064 0 0 1 2.885 1.184c.767.764 1.2 1.801 1.202 2.884a3.993 3.993 0 0 1-2.28 3.545l3.777 4.669-2.846.005zm12.029 0l-.7-2.201h-4.694l-.7 2.21h-2.608l4.168-12.287h2.992l4.173 12.287-2.631-.009zm9.064-2.122c1.62 0 2.978-.878 3.418-2.265h2.539c-.578 2.705-3.03 4.634-5.953 4.634-3.713 0-6.374-2.81-6.374-6.39 0-3.582 2.661-6.39 6.374-6.39 2.907 0 5.375 1.914 5.953 4.635h-2.542c-.437-1.387-1.8-2.281-3.418-2.281-2.4 0-3.976 1.666-3.976 4.036 0 2.37 1.58 4.02 3.98 4.02zm14.877 2.122H43.71V44.632h7.185v2.317h-4.767v2.633h4.317v2.265h-4.317v2.755h4.857l-.008 2.317z"/>
        <path fill="url(#e)" d="M54.797 40.553H7.634c-4.083 0-7.394-3.318-7.395-7.411v20.447C.24 57.682 3.551 61 7.634 61h47.168L65 50.776 54.797 40.553z"/>
        <path fill="#FFF" d="M17.611 48.804a4.171 4.171 0 0 0-1.207-2.928 4.07 4.07 0 0 0-2.899-1.207H8.842v12.488h2.431v-4.34h1.497l3.49 4.335h2.858l-3.802-4.745a4.06 4.06 0 0 0 2.295-3.603zm-4.106 1.855h-2.232v-3.693h2.232c.922 0 1.675.804 1.675 1.832 0 1.029-.758 1.86-1.675 1.86zM23.818 44.67l-4.222 12.487h2.644l.708-2.246h4.754l.704 2.237 2.66.01-4.222-12.489h-3.026zm-.15 7.93l1.657-5.204 1.65 5.203h-3.307zM37.006 46.773c1.633 0 3.005.898 3.446 2.272h2.563c-.582-2.71-3.07-4.616-6.001-4.616-3.744 0-6.426 2.797-6.426 6.363 0 3.567 2.682 6.365 6.426 6.365 2.947 0 5.419-1.921 6-4.615h-2.558c-.445 1.38-1.814 2.256-3.446 2.256-2.42 0-4.012-1.646-4.012-4.006 0-2.36 1.59-4.02 4.008-4.02zM47.389 54.802v-2.8h4.396V49.7h-4.396v-2.676h4.848V44.67h-7.31v12.488h7.4l.008-2.355z"/>
    </g>
</svg>
