<svg xmlns="http://www.w3.org/2000/svg" xmlns:xlink="http://www.w3.org/1999/xlink" width="166" height="26" viewBox="0 0 166 26">
    <defs>
        <path id="a" d="M.358.242h6.19v5.64H.358z"/>
    </defs>
    <g fill="none" fill-rule="evenodd">
        <path fill="#B7BDCD" d="M162.875 3.155l1.01 1.26h-.602l-.932-1.207h-.093v1.207h-.487V1.472h.577c.426 0 .739.071.935.215.208.166.314.38.314.643 0 .21-.066.391-.202.543a.864.864 0 0 1-.52.282zm-.617-.33h.16c.462 0 .69-.163.69-.484 0-.297-.22-.447-.676-.447h-.174v.93zM132.51 1.472c-.91.695-2.185 1.801-3.185 3.185l-6.002 8.35L132.694 26h-7.8c-.024-.674-.266-1.984-1.475-3.648l-3.414-4.747-3.424 4.747c-1.197 1.664-1.438 2.974-1.467 3.648h-7.796l9.374-12.993-6.008-8.35c-.99-1.384-2.273-2.492-3.182-3.185h7.558l4.947 6.931 4.938-6.931h7.564zM28.38 1.472c-.312.495-.645 1.251-.786 2.364V22.596c0 1.504.536 2.694.954 3.404h-6.646l.01-17.32-7.598 6.94-7.598-6.94L6.725 26H0c.417-.71.954-1.9.954-3.404V4.898C.954 3.39.417 2.18 0 1.472c0 .008 7.021 0 7.021 0l7.298 6.693 7.295-6.693h6.767zM50.331 1.472s1.084 3.42 1.565 4.761a8.365 8.365 0 0 0-3.317-.675h-9.41v5.685h4.528a8.3 8.3 0 0 0 3.688-.88v5.48a8.251 8.251 0 0 0-3.692-.88h-4.525v6.491h10.906c1.392 0 2.536-.35 3.32-.695-.513 1.435-1.711 4.792-1.876 5.241.012 0-19.222-.041-19.267 0 .41-.71.933-1.9.933-3.404V4.898c0-1.509-.527-2.718-.936-3.426.036.032 18.083 0 18.083 0M103.09 22.727L96.684 5.039c-.296-.812-.614-2.362-.21-3.567H85.388c.423 1.205.09 2.755-.205 3.567 0 0-5.925 16.363-6.407 17.688-.478 1.331-1.443 2.571-2.12 3.273h7.201l2.474-6.887h9.301L98.122 26h7.082c-.679-.702-1.598-1.838-2.114-3.273zm-15.437-7.263l3.312-9.302 3.355 9.302h-6.667zM161.228 22.727l-6.4-17.688c-.298-.812-.614-2.362-.208-3.567h-11.078c.413 1.205.081 2.755-.207 3.567 0 0-5.93 16.363-6.402 17.688-.478 1.331-1.447 2.571-2.124 3.273h7.198l2.482-6.887h9.303l2.47 6.887h7.095c-.685-.702-1.611-1.838-2.129-3.273zm-15.423-7.263l3.31-9.302 3.35 9.302h-6.66zM78.095 1.472H57.1s-1.097 3.452-1.59 4.79c.044-.014 1.653-.704 3.388-.704h5.811v17.038c0 1.504-.583 2.694-1.038 3.404h8.181c-.426-.665-.95-1.745-1.018-3.118V5.558h5.544c2.011-.015 3.406.478 3.45.493-.497-1.338-1.576-4.154-1.733-4.58"/>
        <g transform="translate(159.127)">
            <mask id="b" fill="#fff">
                <use xlink:href="#a"/>
            </mask>
            <path fill="#B7BDCD" d="M.358 3.06c0 1.556 1.393 2.822 3.102 2.822 1.704 0 3.088-1.266 3.088-2.823C6.548 1.504 5.164.242 3.46.242 1.75.242.358 1.504.358 3.06m.662 0C1.02 1.841 2.115.843 3.46.843c1.337 0 2.439.998 2.439 2.216 0 1.225-1.102 2.222-2.44 2.222-1.344 0-2.44-.997-2.44-2.222" mask="url(#b)"/>
        </g>
    </g>
</svg>
